<?xml version="1.0" encoding="UTF-8"?>
<svg id="Capa_2" data-name="Capa 2" xmlns="http://www.w3.org/2000/svg" viewBox="0 0 961.4 326.82">
  <defs>
    <style>
      .cls-1 {
        fill: #fff;
      }

      .cls-1, .cls-2 {
        stroke-width: 0px;
      }

      .cls-2 {
        fill: #248522;
      }
    </style>
  </defs>
  <g id="Capa_1-2" data-name="Capa 1">
    <g>
      <path class="cls-1" d="m75.32,47.24c.09-.57.39-1.2.9-1.87.51-.67,1.13-1.29,1.86-1.87.73-.57,1.52-1.03,2.34-1.36.83-.33,1.61-.5,2.34-.5h35.31c1.56,0,2.9.5,4,1.51,1.1,1,1.93,1.89,2.48,2.66l3.45,8.18,72.41,194.43c.73,1.92.6,3.47-.41,4.67-1.01,1.2-2.76,1.8-5.24,1.8h-39.58c-2.12,0-3.75-.41-4.9-1.22-1.15-.81-2.05-2.18-2.69-4.09-1.84-4.88-3.63-9.74-5.38-14.58-1.75-4.83-3.5-9.69-5.24-14.58H63.74c-1.75,4.88-3.52,9.74-5.31,14.58-1.79,4.83-3.56,9.69-5.31,14.58-1.2,3.54-3.54,5.31-7.03,5.31H5.4c-1.75,0-3.2-.48-4.34-1.44-1.15-.96-1.36-2.39-.62-4.31L75.32,47.24Zm25.1,61.46c-1.75,4.88-3.52,10.15-5.31,15.79-1.79,5.65-3.56,11.34-5.31,17.09-1.75,5.74-3.52,11.42-5.31,17.02-1.79,5.6-3.56,10.84-5.31,15.72h42.34l-21.1-65.62Z"/>
      <path class="cls-1" d="m248.42,198.16c2.48,2.59,5.17,4.76,8.07,6.53,2.9,1.77,5.68,3.21,8.34,4.31,2.67,1.1,5.01,1.89,7.03,2.37,2.02.48,3.4.72,4.14.72,1.75,0,3.98-.07,6.69-.21,2.71-.14,5.31-.57,7.79-1.29,2.48-.72,4.62-1.89,6.41-3.52,1.79-1.63,2.69-3.92,2.69-6.89,0-2.68-.51-4.81-1.52-6.39-1.01-1.58-2.48-2.92-4.41-4.02-1.93-1.1-4.3-2.08-7.1-2.94-2.81-.86-5.95-1.87-9.45-3.02-11.03-3.06-20.14-6.75-27.31-11.06-7.17-4.31-12.85-9.12-17.03-14.43-4.18-5.31-7.1-11.03-8.76-17.16-1.66-6.12-2.48-12.59-2.48-19.39,0-7.95,1.52-15.17,4.55-21.68,3.03-6.51,7.35-12.09,12.96-16.73,5.61-4.64,12.32-8.23,20.14-10.77,7.81-2.53,16.5-3.81,26.07-3.81,5.79,0,11.22.5,16.27,1.51,5.06,1,9.88,2.58,14.48,4.74,4.6,2.15,9.08,4.93,13.45,8.33,4.37,3.4,8.71,7.44,13.03,12.13,1.56,1.92,2.37,3.71,2.41,5.38.05,1.68-.99,3.47-3.1,5.39-3.59,3.06-7.01,6.08-10.28,9.05-3.26,2.97-6.64,6.27-10.14,9.91-1.1.96-2.21,1.56-3.31,1.79-1.1.24-2.16.22-3.17-.07-1.01-.29-1.98-.77-2.9-1.44-.92-.67-1.75-1.48-2.48-2.44-3.22-3.73-6.9-6.25-11.03-7.54-4.14-1.29-8-1.94-11.59-1.94-4.51,0-8.09.82-10.76,2.44-2.67,1.63-3.91,4.12-3.72,7.47.18,2.49,1.08,4.43,2.69,5.82,1.61,1.39,3.59,2.51,5.93,3.37s4.83,1.56,7.45,2.08c2.62.53,5.04,1.13,7.24,1.8,8.28,2.78,15.86,5.79,22.76,9.05,6.9,3.26,12.87,7.25,17.93,11.99,5.06,4.74,8.99,10.41,11.79,17.02,2.8,6.61,4.21,14.65,4.21,24.12s-1.82,17.95-5.45,25.42c-3.63,7.47-8.62,13.74-14.96,18.81-6.34,5.07-13.86,8.95-22.55,11.63-8.69,2.68-18.05,4.02-28.07,4.02-5.7,0-11.49-.53-17.38-1.58-5.89-1.05-11.59-2.75-17.1-5.1-5.52-2.34-10.76-5.36-15.72-9.05-4.97-3.68-9.38-8.16-13.24-13.43-1.01-1.34-1.77-2.75-2.28-4.24-.51-1.48-.74-2.94-.69-4.38.05-1.44.32-2.75.83-3.95.5-1.2,1.31-2.23,2.41-3.09l17.79-18.52c2.21-1.91,4.16-2.58,5.86-2.01,1.7.57,3.88,2.2,6.55,4.88Z"/>
      <path class="cls-2" d="m381.79,11.06c0-4.02.83-6.87,2.48-8.54,1.66-1.67,4.23-2.51,7.72-2.51h32c3.22,0,5.81.84,7.79,2.51,1.98,1.68,2.96,4.52,2.96,8.54v28c0,1.15-.25,2.39-.76,3.73-.51,1.34-1.22,2.63-2.14,3.88-.92,1.25-2.05,2.28-3.38,3.09-1.33.81-2.83,1.22-4.48,1.22h-32c-6.81,0-10.21-3.97-10.21-11.92V11.06Z"/>
      <path class="cls-1" d="m381.79,83.72c0-3.06.83-5.69,2.48-7.9,1.66-2.2,4.23-3.3,7.72-3.3h31.58c1.1,0,2.3.26,3.59.79,1.29.53,2.48,1.29,3.59,2.3s2.05,2.18,2.83,3.52c.78,1.34,1.17,2.87,1.17,4.6v160.11c0,3.64-.96,6.39-2.9,8.26-1.93,1.87-4.69,2.8-8.28,2.8h-31.58c-6.81,0-10.21-3.68-10.21-11.06V83.72Z"/>
      <path class="cls-1" d="m471.43,75.08c1.19-1.05,2.46-1.72,3.79-2.01,1.33-.29,2.6-.43,3.79-.43h20.83c1.65,0,3.08.31,4.27.93,1.19.62,2.21,1.46,3.03,2.51.83,1.05,1.49,2.24,2,3.58.5,1.34.99,2.72,1.45,4.15l2.9,12.6c1.38-2.96,3.61-6.01,6.69-9.16,3.08-3.15,6.9-6.01,11.45-8.59,4.55-2.58,9.81-4.7,15.79-6.37,5.98-1.67,12.64-2.51,20-2.51,10.48,0,19.84,2.1,28.07,6.3,8.23,4.2,15.22,9.93,20.96,17.18,5.75,7.26,10.11,15.73,13.1,25.43,2.99,9.7,4.48,20.06,4.48,31.06v94.05c0,3.64-.76,6.39-2.28,8.26s-3.93,2.8-7.24,2.8h-31.86c-3.95,0-6.67-.69-8.14-2.08-1.47-1.39-2.21-4.09-2.21-8.11v-93.48c0-4.11-.9-8.02-2.69-11.7-1.79-3.68-4.16-6.94-7.1-9.77-2.94-2.82-6.28-5.05-10-6.68-3.72-1.63-7.52-2.44-11.38-2.44-3.31,0-6.69.77-10.14,2.3-3.45,1.53-6.62,3.66-9.52,6.39-2.9,2.73-5.33,5.94-7.31,9.62-1.98,3.69-3.1,7.68-3.38,11.99v93.34c0,1.63-.3,3.26-.9,4.88-.6,1.63-1.5,2.87-2.69,3.73-1.2.77-2.32,1.29-3.38,1.58-1.06.29-2.28.43-3.65.43h-31.17c-3.96,0-6.81-1-8.55-3.02-1.75-2.01-2.62-4.69-2.62-8.04V83.25c0-1.81.39-3.48,1.17-5.01.78-1.53,1.86-2.72,3.24-3.58l-.83.43Z"/>
      <path class="cls-1" d="m683.83,75.1c0-8.9,1.84-17.28,5.52-25.13,3.68-7.85,8.6-14.72,14.76-20.61,6.16-5.89,13.24-10.53,21.24-13.93,8-3.4,16.37-5.1,25.1-5.1h2.76c3.12,0,5.54.98,7.24,2.94,1.7,1.96,2.55,4.67,2.55,8.11v27.43c0,3.54-.9,6.49-2.69,8.83-1.79,2.35-4.16,3.52-7.1,3.52h-2.76c-1.93,0-3.77.36-5.52,1.08-1.75.72-3.31,1.7-4.69,2.94-1.38,1.24-2.48,2.71-3.31,4.38-.83,1.68-1.24,3.52-1.24,5.53v16.51h21.65c3.12,0,5.54.89,7.24,2.66,1.7,1.77,2.55,4.57,2.55,8.4v26.28c0,4.12-.85,7.13-2.55,9.05-1.7,1.92-4.12,2.87-7.24,2.87h-21.65v102.96c0,3.64-1.17,6.39-3.52,8.26-2.34,1.87-4.9,2.8-7.65,2.8h-29.79c-3.31,0-5.95-1.08-7.93-3.23-1.98-2.15-2.97-4.76-2.97-7.83v-102.96h-14.21c-3.22,0-5.82-.96-7.79-2.87-1.98-1.91-2.96-4.93-2.96-9.05v-26.28c0-3.83.99-6.63,2.96-8.4,1.98-1.77,4.57-2.66,7.79-2.66h14.21v-16.51Z"/>
      <path class="cls-1" d="m776.1,86.3c-1.47-3.83-1.5-7.11-.07-9.84,1.42-2.73,4.57-4.09,9.45-4.09h34.07c2.3,0,4.18.74,5.65,2.23,1.47,1.49,2.57,3.33,3.31,5.53l39.03,115.59,38.2-115.59c1.01-3.06,2.3-5.12,3.86-6.17,1.56-1.05,3.72-1.58,6.48-1.58h35.45c2.57,0,4.6.36,6.07,1.08,1.47.72,2.5,1.68,3.1,2.87.6,1.2.8,2.54.62,4.02-.18,1.49-.55,2.94-1.1,4.38-3.49,9-7.31,18.84-11.45,29.51-4.14,10.68-8.44,21.78-12.9,33.32-4.46,11.54-8.99,23.26-13.59,35.18-4.6,11.92-9.08,23.62-13.45,35.11-4.37,11.49-8.57,22.52-12.62,33.1-4.05,10.58-7.75,20.29-11.1,29.15-3.36,8.85-6.28,16.63-8.76,23.33-2.48,6.7-4.37,11.87-5.66,15.51l.41-.72c-.64,2.58-1.79,4.67-3.45,6.25s-3.68,2.37-6.07,2.37h-31.86c-4.14,0-6.96-.84-8.48-2.51-1.52-1.68-2.28-4.14-2.28-7.39,0-1.25.16-2.2.48-2.87.32-.67.57-1.1.76-1.29l21.65-58.59-65.79-167.86Z"/>
    </g>
  </g>
</svg>