<svg width="235" height="109" viewBox="0 0 235 109" fill="none" xmlns="http://www.w3.org/2000/svg">
<g clip-path="url(#clip0_36_446)">
<path d="M138.281 50.3853L135.658 44.0633C135.262 43.0959 134.975 42.51 134.783 42.292C134.592 42.074 134.373 41.9241 134.1 41.8288V41.5154H138.418V41.8288C138.131 41.8424 137.939 41.8969 137.816 42.0059C137.707 42.1149 137.639 42.2375 137.639 42.3874C137.639 42.619 137.775 43.0823 138.076 43.7635L139.47 47.1153L140.412 44.5265C140.754 43.6 140.918 42.9596 140.918 42.5918C140.918 42.3601 140.85 42.183 140.713 42.0468C140.576 41.9105 140.317 41.8424 139.962 41.8288V41.5154H142.667V41.8288C142.394 41.856 142.189 41.965 142.011 42.1558C141.847 42.3465 141.56 42.9733 141.164 44.0633L138.855 50.3716C138.267 51.9521 137.844 52.9195 137.557 53.2738C137.161 53.7779 136.655 54.0368 136.054 54.0368C135.576 54.0368 135.18 53.8869 134.879 53.6008C134.578 53.3146 134.428 52.9604 134.428 52.5516C134.428 52.1974 134.537 51.9113 134.742 51.6796C134.947 51.448 135.207 51.3254 135.507 51.3254C135.794 51.3254 136.027 51.4208 136.204 51.6115C136.382 51.8023 136.478 52.1156 136.478 52.5244C136.478 52.756 136.505 52.9059 136.546 52.974C136.601 53.0421 136.669 53.083 136.751 53.083C136.887 53.083 137.038 53.0013 137.188 52.8241C137.42 52.5653 137.694 51.9794 138.008 51.0665L138.281 50.3853ZM125.684 48.0963V45.2623C124.987 45.6983 124.468 46.1479 124.113 46.6384C123.894 46.9654 123.771 47.2924 123.771 47.633C123.771 47.9191 123.867 48.1508 124.058 48.3688C124.208 48.5323 124.4 48.614 124.659 48.614C124.96 48.614 125.301 48.4369 125.684 48.0963ZM125.684 48.7639C124.687 49.6768 123.798 50.14 123.02 50.14C122.555 50.14 122.173 49.9765 121.858 49.6631C121.558 49.3498 121.394 48.941 121.394 48.4641C121.394 47.8101 121.667 47.2379 122.2 46.7201C122.733 46.2024 123.894 45.5075 125.684 44.6491V43.7908C125.684 43.1504 125.657 42.7416 125.588 42.5781C125.52 42.4146 125.397 42.2648 125.206 42.1421C125.014 42.0195 124.81 41.9514 124.577 41.9514C124.195 41.9514 123.88 42.0331 123.648 42.2103C123.498 42.3193 123.43 42.4419 123.43 42.5918C123.43 42.7144 123.512 42.8779 123.675 43.0686C123.894 43.3275 124.003 43.5864 124.003 43.818C124.003 44.1178 123.894 44.363 123.689 44.581C123.484 44.7854 123.197 44.8944 122.856 44.8944C122.487 44.8944 122.186 44.7854 121.94 44.5538C121.694 44.3221 121.571 44.0496 121.571 43.7499C121.571 43.3139 121.735 42.8915 122.063 42.4964C122.391 42.1013 122.856 41.8015 123.443 41.5835C124.031 41.3791 124.646 41.2701 125.288 41.2701C126.053 41.2701 126.668 41.4473 127.119 41.7879C127.569 42.1285 127.856 42.4964 127.993 42.9051C128.075 43.164 128.116 43.7499 128.116 44.6491V47.9464C128.116 48.3279 128.13 48.5731 128.157 48.6821C128.184 48.7775 128.225 48.8593 128.294 48.9001C128.348 48.941 128.416 48.9683 128.498 48.9683C128.649 48.9683 128.813 48.8593 128.963 48.6413L129.223 48.8456C128.936 49.2953 128.635 49.6223 128.321 49.8266C128.007 50.031 127.665 50.14 127.269 50.14C126.804 50.14 126.435 50.031 126.176 49.7994C125.903 49.5678 125.739 49.2271 125.684 48.7639ZM119.426 41.5154V48.2598C119.426 48.8593 119.495 49.2544 119.631 49.4179C119.768 49.5814 120.028 49.6768 120.424 49.704V50.0174H115.997V49.704C116.366 49.6904 116.639 49.5814 116.817 49.377C116.94 49.2408 116.994 48.8593 116.994 48.2598V43.2866C116.994 42.6735 116.926 42.292 116.789 42.1285C116.653 41.965 116.393 41.8696 115.997 41.8424V41.529H119.426V41.5154ZM118.197 37.4006C118.579 37.4006 118.894 37.5369 119.153 37.8094C119.413 38.0819 119.549 38.4225 119.549 38.804C119.549 39.1991 119.413 39.5261 119.153 39.7986C118.894 40.0711 118.566 40.2074 118.197 40.2074C117.828 40.2074 117.514 40.0711 117.254 39.7986C116.994 39.5261 116.858 39.1991 116.858 38.804C116.858 38.4225 116.994 38.0819 117.254 37.8094C117.514 37.5369 117.828 37.4006 118.197 37.4006ZM111.721 41.5154V43.4501C112.253 42.5781 112.732 41.9923 113.128 41.7061C113.538 41.42 113.92 41.2701 114.289 41.2701C114.617 41.2701 114.877 41.3791 115.068 41.5835C115.259 41.7879 115.355 42.0876 115.355 42.4691C115.355 42.8779 115.259 43.1913 115.068 43.4093C114.877 43.6273 114.658 43.7499 114.385 43.7499C114.084 43.7499 113.811 43.6409 113.592 43.4365C113.374 43.2321 113.237 43.1095 113.196 43.0959C113.141 43.055 113.073 43.0414 112.991 43.0414C112.827 43.0414 112.663 43.1095 112.513 43.2458C112.281 43.4501 112.103 43.7499 111.98 44.1314C111.803 44.7173 111.707 45.3713 111.707 46.0798V48.0281V48.5459C111.707 48.9001 111.734 49.1181 111.775 49.2135C111.844 49.377 111.953 49.4996 112.089 49.5678C112.226 49.6495 112.458 49.6904 112.786 49.704V50.0174H108.373V49.704C108.728 49.6768 108.974 49.5678 109.097 49.4043C109.234 49.2271 109.302 48.7775 109.302 48.0281V43.3275C109.302 42.837 109.275 42.5236 109.234 42.3874C109.179 42.2103 109.097 42.0876 108.988 42.0059C108.879 41.9241 108.687 41.8696 108.4 41.8424V41.529H111.721V41.5154ZM105.654 38.3816V41.5154H107.581V42.4146H105.654V47.6739C105.654 48.1644 105.682 48.4778 105.723 48.6276C105.764 48.7639 105.846 48.8865 105.955 48.9683C106.064 49.0636 106.16 49.1045 106.255 49.1045C106.638 49.1045 106.98 48.8048 107.321 48.2053L107.581 48.4096C107.116 49.5678 106.351 50.1536 105.299 50.1536C104.78 50.1536 104.343 50.0038 103.987 49.704C103.632 49.4043 103.4 49.0636 103.304 48.6958C103.25 48.4914 103.222 47.9328 103.222 47.0199V42.4283H102.157V42.1149C102.894 41.5699 103.509 41.0113 104.028 40.4118C104.548 39.8123 104.998 39.1446 105.381 38.4089H105.654V38.3816ZM100.626 41.2974L100.749 44.1995H100.449C100.094 43.3411 99.7383 42.7553 99.3557 42.4419C98.9868 42.1285 98.6043 41.965 98.2354 41.965C98.0031 41.965 97.7982 42.0468 97.6342 42.2103C97.4703 42.3738 97.3883 42.5645 97.3883 42.7825C97.3883 42.946 97.4429 43.0959 97.5659 43.2594C97.7435 43.5046 98.2627 43.927 99.1098 44.5265C99.9569 45.126 100.517 45.6438 100.777 46.0661C101.05 46.4885 101.173 46.9518 101.173 47.4695C101.173 47.9464 101.064 48.4096 100.831 48.8593C100.613 49.3089 100.285 49.6631 99.8886 49.9084C99.4787 50.1536 99.0278 50.2763 98.536 50.2763C98.1534 50.2763 97.6342 50.1536 96.9921 49.8948C96.8145 49.8266 96.7052 49.7994 96.6368 49.7994C96.4456 49.7994 96.2953 49.9493 96.1586 50.2626H95.8581L95.7214 47.2106H96.022C96.2816 48.0009 96.6368 48.6004 97.0877 48.9955C97.5386 49.3906 97.9621 49.595 98.372 49.595C98.6453 49.595 98.8775 49.4996 99.0552 49.3225C99.2328 49.1454 99.3147 48.9274 99.3147 48.6685C99.3147 48.3824 99.2328 48.1235 99.0552 47.9191C98.8775 47.7011 98.495 47.3878 97.8938 46.9654C97.0057 46.325 96.4456 45.8345 96.186 45.4939C95.8034 45.0034 95.6121 44.4448 95.6121 43.8453C95.6121 43.1913 95.8307 42.6054 96.2543 42.074C96.6778 41.5426 97.3063 41.2838 98.1261 41.2838C98.5633 41.2838 98.9868 41.3928 99.3967 41.6244C99.547 41.7198 99.6836 41.7606 99.7793 41.7606C99.8886 41.7606 99.9706 41.7334 100.025 41.6925C100.094 41.6516 100.189 41.5154 100.326 41.2974H100.626ZM93.4534 41.5154V48.178C93.4534 48.832 93.5081 49.2408 93.631 49.4043C93.7403 49.5678 93.9863 49.6631 94.3278 49.7176V50.031H91.0214V48.9001C90.6389 49.3906 90.2426 49.7313 89.8601 49.9493C89.4775 50.1673 89.0403 50.2763 88.5485 50.2763C88.0976 50.2763 87.6877 50.1264 87.3325 49.8403C86.9772 49.5405 86.745 49.1999 86.622 48.8048C86.499 48.4096 86.4444 47.7148 86.4444 46.7474V43.3684C86.4444 42.7144 86.3897 42.3193 86.2804 42.1558C86.1711 41.9923 85.9389 41.8969 85.5836 41.8424V41.529H88.89V47.3469C88.89 47.9464 88.9174 48.3415 88.972 48.5186C89.0267 48.6958 89.1086 48.832 89.2316 48.9138C89.3546 49.0091 89.4912 49.05 89.6415 49.05C89.8464 49.05 90.0377 48.9955 90.2017 48.8729C90.4339 48.7094 90.7072 48.396 91.0351 47.9191V43.3684C91.0351 42.7144 90.9804 42.3193 90.8711 42.1558C90.7618 41.9923 90.5296 41.8969 90.1743 41.8424V41.529H93.4534V41.5154ZM81.1569 43.4501C80.7334 42.5918 80.2142 42.1694 79.5993 42.1694C79.3807 42.1694 79.2168 42.2239 79.0665 42.3465C78.8615 42.5373 78.6839 42.8643 78.5473 43.3411C78.4107 43.818 78.3424 44.5401 78.3424 45.5075C78.3424 46.5839 78.4107 47.3741 78.561 47.8783C78.7113 48.396 78.9162 48.7639 79.1758 48.9955C79.3124 49.1045 79.49 49.1726 79.7223 49.1726C80.2278 49.1726 80.706 48.7503 81.1569 47.9191V43.4501ZM83.5889 37.6731V47.4695C83.5889 48.1235 83.6025 48.5186 83.6435 48.6276C83.6845 48.832 83.7802 48.9819 83.9031 49.0773C84.0261 49.1726 84.2583 49.2271 84.5863 49.2544V49.5678L81.1569 50.2763V48.9274C80.747 49.4451 80.3781 49.7994 80.0639 49.9901C79.7496 50.1809 79.3807 50.2763 78.9845 50.2763C77.9461 50.2763 77.14 49.7858 76.5389 48.8184C76.0607 48.0281 75.8147 47.0744 75.8147 45.9163C75.8147 45.0034 75.965 44.1859 76.2656 43.4638C76.5662 42.7416 76.9761 42.1966 77.4953 41.8288C78.0145 41.4609 78.5746 41.2701 79.1758 41.2701C79.5584 41.2701 79.8999 41.3519 80.2005 41.5018C80.5011 41.6653 80.8153 41.9378 81.1569 42.3329V39.7441C81.1569 39.1038 81.1296 38.7086 81.0749 38.586C81.0066 38.4089 80.8973 38.2863 80.7607 38.2045C80.624 38.1228 80.3645 38.0819 79.9819 38.0819V37.6868H83.5889V37.6731ZM69.1336 41.5154V42.619C69.5435 42.1558 69.9534 41.8151 70.336 41.5971C70.7185 41.3791 71.1284 41.2838 71.5656 41.2838C72.0985 41.2838 72.5357 41.4336 72.8772 41.747C73.2188 42.0604 73.4511 42.4419 73.574 42.8915C73.6697 43.2458 73.7107 43.8998 73.7107 44.8808V48.1916C73.7107 48.8456 73.7653 49.2544 73.8746 49.4179C73.9839 49.5814 74.2162 49.6768 74.5714 49.7176V50.031H70.4589V49.7176C70.7732 49.6768 70.9918 49.5405 71.1147 49.3225C71.2104 49.1726 71.2514 48.7911 71.2514 48.1916V44.4039C71.2514 43.709 71.224 43.2594 71.1694 43.0823C71.1147 42.9051 71.0328 42.7553 70.9098 42.6599C70.7868 42.5645 70.6502 42.51 70.4999 42.51C70.0081 42.51 69.5435 42.8779 69.12 43.6136V48.1916C69.12 48.832 69.1746 49.2271 69.2839 49.4043C69.3932 49.5814 69.6118 49.6768 69.9124 49.7176V50.031H65.7999V49.7176C66.1415 49.6768 66.3874 49.5678 66.524 49.377C66.6197 49.2408 66.6743 48.8456 66.6743 48.1916V43.3684C66.6743 42.7144 66.6197 42.3193 66.5104 42.1558C66.4011 41.9923 66.1688 41.8969 65.8136 41.8424V41.529H69.1336V41.5154ZM64.7752 49.7176V50.031H58.6406V49.7176H59.0232C59.3647 49.7176 59.638 49.6495 59.8429 49.5269C59.9932 49.4451 60.1162 49.2953 60.1845 49.0909C60.2528 48.941 60.2801 48.5595 60.2801 47.9328V39.785C60.2801 39.1446 60.2528 38.7495 60.1845 38.5996C60.1162 38.4361 59.9932 38.2999 59.802 38.1773C59.6107 38.0546 59.3511 38.0001 59.0095 38.0001H58.627V37.6868H64.7615V38.0001H64.379C64.0374 38.0001 63.7642 38.0683 63.5592 38.1909C63.4089 38.2726 63.286 38.4225 63.204 38.6269C63.1357 38.7768 63.1083 39.1583 63.1083 39.785V47.9191C63.1083 48.5595 63.1357 48.9546 63.204 49.1045C63.2723 49.268 63.3953 49.4043 63.5865 49.5269C63.7778 49.6495 64.0374 49.704 64.3653 49.704H64.7752V49.7176Z" fill="#616161"/>
<path d="M217.17 42.8915C216.883 42.8915 216.624 43.0141 216.419 43.2457C216.214 43.4774 216.063 43.9406 216.009 44.6219C215.941 45.3167 215.913 46.2705 215.913 47.4831C215.913 48.1371 215.954 48.7366 216.036 49.3089C216.104 49.7312 216.241 50.0719 216.446 50.2899C216.651 50.5079 216.897 50.6305 217.157 50.6305C217.416 50.6305 217.635 50.5624 217.812 50.3989C218.045 50.1945 218.181 49.9084 218.263 49.5405C218.372 48.9682 218.441 47.7965 218.441 46.0525C218.441 45.0306 218.386 44.3221 218.277 43.927C218.168 43.5455 218.004 43.2594 217.785 43.0822C217.607 42.9596 217.416 42.8915 217.17 42.8915ZM217.129 42.2647C217.826 42.2647 218.482 42.4555 219.097 42.837C219.698 43.2185 220.162 43.7635 220.477 44.4584C220.791 45.1669 220.941 45.9299 220.941 46.761C220.941 47.96 220.654 48.9682 220.067 49.7857C219.356 50.7667 218.386 51.2572 217.143 51.2572C215.927 51.2572 214.984 50.8076 214.328 49.9084C213.672 49.0091 213.345 47.9736 213.345 46.7882C213.345 45.5756 213.686 44.5129 214.356 43.6C215.039 42.7144 215.954 42.2647 217.129 42.2647ZM211.527 42.4964V49.2407C211.527 49.8402 211.596 50.2354 211.732 50.3989C211.869 50.5624 212.129 50.6577 212.525 50.685V50.9984H208.098V50.685C208.467 50.6714 208.74 50.5624 208.918 50.358C209.041 50.2217 209.095 49.8402 209.095 49.2407V44.2676C209.095 43.6545 209.027 43.273 208.891 43.1095C208.754 42.946 208.494 42.8506 208.098 42.8234V42.51H211.527V42.4964ZM210.298 38.3816C210.68 38.3816 210.995 38.5179 211.254 38.7904C211.514 39.0629 211.65 39.4035 211.65 39.785C211.65 40.1801 211.514 40.5071 211.254 40.7796C210.995 41.0521 210.667 41.1884 210.298 41.1884C209.929 41.1884 209.615 41.0521 209.355 40.7796C209.095 40.5071 208.959 40.1801 208.959 39.785C208.959 39.4035 209.095 39.0629 209.355 38.7904C209.615 38.5179 209.929 38.3816 210.298 38.3816ZM207.073 48.8047L207.347 49.0227C206.964 49.7721 206.486 50.3307 205.912 50.6986C205.338 51.0665 204.737 51.2572 204.081 51.2572C203.002 51.2572 202.127 50.8349 201.485 49.9765C200.829 49.1181 200.515 48.0962 200.515 46.8972C200.515 45.7391 200.816 44.7309 201.403 43.8452C202.114 42.7825 203.097 42.2511 204.354 42.2511C205.202 42.2511 205.857 42.4691 206.363 42.9187C206.855 43.3547 207.114 43.8589 207.114 44.3902C207.114 44.7309 207.019 45.017 206.814 45.2214C206.609 45.4257 206.349 45.5347 206.021 45.5347C205.68 45.5347 205.393 45.4121 205.174 45.1805C204.942 44.9489 204.819 44.5265 204.764 43.9134C204.737 43.5319 204.641 43.2594 204.518 43.1095C204.382 42.9596 204.232 42.8779 204.054 42.8779C203.781 42.8779 203.535 43.0277 203.343 43.3411C203.043 43.8044 202.893 44.5265 202.893 45.4802C202.893 46.2841 203.016 47.0471 203.261 47.7692C203.507 48.505 203.835 49.0364 204.259 49.3906C204.573 49.6495 204.956 49.7857 205.393 49.7857C205.68 49.7857 205.953 49.7176 206.199 49.5814C206.431 49.4587 206.732 49.1999 207.073 48.8047ZM196.252 42.4964V44.4311C196.785 43.5591 197.263 42.9732 197.66 42.6871C198.07 42.401 198.452 42.2511 198.821 42.2511C199.149 42.2511 199.409 42.3601 199.6 42.5645C199.791 42.7689 199.887 43.0686 199.887 43.4501C199.887 43.8589 199.791 44.1722 199.6 44.3902C199.409 44.6082 199.19 44.7309 198.917 44.7309C198.616 44.7309 198.343 44.6219 198.124 44.4175C197.906 44.2131 197.769 44.0905 197.728 44.0769C197.673 44.036 197.605 44.0224 197.523 44.0224C197.359 44.0224 197.195 44.0905 197.045 44.2267C196.813 44.4311 196.635 44.7309 196.512 45.1124C196.334 45.6982 196.239 46.3522 196.239 47.0607V49.0091V49.5269C196.239 49.8811 196.266 50.0991 196.307 50.1945C196.375 50.358 196.485 50.4806 196.621 50.5487C196.758 50.6305 196.99 50.6714 197.318 50.685V50.9984H192.905V50.685C193.26 50.6577 193.506 50.5487 193.629 50.3852C193.752 50.2081 193.82 49.7585 193.82 49.0091V44.2949C193.82 43.8044 193.793 43.491 193.752 43.3547C193.697 43.1776 193.616 43.055 193.506 42.9732C193.397 42.8915 193.206 42.837 192.919 42.8097V42.4964H196.252ZM189.735 45.8481C189.735 44.8671 189.681 44.1995 189.585 43.8452C189.476 43.4774 189.325 43.2049 189.107 43.0141C188.984 42.9051 188.82 42.8506 188.615 42.8506C188.314 42.8506 188.068 43.0005 187.877 43.3139C187.536 43.8589 187.358 44.5946 187.358 45.5347V45.8481H189.735ZM191.867 46.4476H187.399C187.454 47.5785 187.741 48.4641 188.26 49.1181C188.656 49.6222 189.134 49.8675 189.708 49.8675C190.063 49.8675 190.377 49.7585 190.651 49.5677C190.938 49.3634 191.238 48.9955 191.566 48.4777L191.867 48.6821C191.429 49.6222 190.938 50.2762 190.405 50.6714C189.872 51.0529 189.257 51.2572 188.547 51.2572C187.344 51.2572 186.429 50.7667 185.814 49.7994C185.322 49.0227 185.063 48.0554 185.063 46.8972C185.063 45.4802 185.431 44.3494 186.169 43.5182C186.907 42.6735 187.768 42.2647 188.752 42.2647C189.571 42.2647 190.282 42.619 190.897 43.3139C191.498 44.0224 191.826 45.0715 191.867 46.4476ZM173.531 42.4964V43.6272C173.982 43.1095 174.392 42.7552 174.775 42.5509C175.157 42.3465 175.567 42.2511 176.018 42.2511C176.537 42.2511 176.974 42.3737 177.329 42.6326C177.685 42.8915 177.958 43.273 178.149 43.7907C178.614 43.2457 179.065 42.8506 179.488 42.6054C179.912 42.3601 180.363 42.2375 180.827 42.2375C181.387 42.2375 181.838 42.3737 182.166 42.6462C182.508 42.9187 182.726 43.2594 182.863 43.6817C183 44.1041 183.054 44.7581 183.054 45.671V49.159C183.054 49.813 183.109 50.2217 183.218 50.3716C183.327 50.5351 183.56 50.6305 183.915 50.685V50.9984H179.72V50.685C180.048 50.6577 180.294 50.5215 180.458 50.2899C180.568 50.1264 180.622 49.7449 180.622 49.159V45.5075C180.622 44.7445 180.595 44.2676 180.54 44.0632C180.486 43.8589 180.39 43.709 180.267 43.6C180.144 43.5046 179.994 43.4501 179.83 43.4501C179.584 43.4501 179.324 43.5455 179.078 43.7362C178.819 43.927 178.559 44.2131 178.3 44.5946V49.1726C178.3 49.7857 178.341 50.1672 178.45 50.3307C178.586 50.5487 178.832 50.685 179.215 50.6986V51.012H175.02V50.6986C175.239 50.685 175.417 50.6305 175.553 50.5215C175.676 50.4125 175.772 50.2899 175.813 50.14C175.854 49.9901 175.881 49.6631 175.881 49.1726V45.5075C175.881 44.7309 175.854 44.254 175.799 44.0632C175.745 43.8725 175.649 43.709 175.512 43.6136C175.376 43.5046 175.225 43.4501 175.075 43.4501C174.843 43.4501 174.638 43.5182 174.447 43.6409C174.173 43.8316 173.886 44.1586 173.586 44.6082V49.1862C173.586 49.7857 173.641 50.1809 173.75 50.3716C173.859 50.5624 174.091 50.6714 174.447 50.7122V51.0256H170.266V50.7122C170.607 50.6714 170.853 50.5624 170.99 50.3716C171.086 50.2354 171.14 49.8402 171.14 49.1862V44.363C171.14 43.709 171.086 43.3139 170.976 43.1504C170.867 42.9869 170.635 42.8915 170.279 42.837V42.5236H173.531V42.4964ZM165.129 42.8915C164.842 42.8915 164.582 43.0141 164.377 43.2457C164.172 43.4774 164.022 43.9406 163.967 44.6219C163.899 45.3167 163.872 46.2705 163.872 47.4831C163.872 48.1371 163.913 48.7366 163.995 49.3089C164.063 49.7312 164.2 50.0719 164.404 50.2899C164.609 50.5079 164.855 50.6305 165.115 50.6305C165.375 50.6305 165.593 50.5624 165.771 50.3989C165.989 50.1945 166.14 49.9084 166.222 49.5405C166.331 48.9682 166.399 47.7965 166.399 46.0525C166.399 45.0306 166.345 44.3221 166.235 43.927C166.126 43.5455 165.962 43.2594 165.743 43.0822C165.566 42.9596 165.375 42.8915 165.129 42.8915ZM165.101 42.2647C165.798 42.2647 166.454 42.4555 167.069 42.837C167.67 43.2185 168.134 43.7635 168.449 44.4584C168.763 45.1669 168.927 45.9299 168.927 46.761C168.927 47.96 168.64 48.9682 168.052 49.7857C167.342 50.7667 166.372 51.2572 165.129 51.2572C163.913 51.2572 162.97 50.8076 162.314 49.9084C161.658 49.0091 161.33 47.9736 161.33 46.7882C161.33 45.5756 161.672 44.5129 162.341 43.6C162.997 42.7144 163.926 42.2647 165.101 42.2647ZM159.677 38.3816V42.6599H159.336C159.076 41.5426 158.611 40.6706 157.915 40.0711C157.218 39.4716 156.439 39.1719 155.551 39.1719C154.813 39.1719 154.144 39.3899 153.529 39.8395C152.914 40.2891 152.463 40.8614 152.19 41.5835C151.821 42.4964 151.643 43.5182 151.643 44.6491C151.643 45.7527 151.78 46.761 152.04 47.6739C152.313 48.5867 152.723 49.268 153.283 49.7312C153.843 50.1945 154.581 50.4261 155.483 50.4261C156.22 50.4261 156.904 50.249 157.518 49.922C158.133 49.5814 158.775 48.9955 159.459 48.1644V49.2271C158.803 49.9492 158.106 50.4806 157.395 50.8076C156.685 51.1346 155.852 51.2981 154.895 51.2981C153.638 51.2981 152.518 51.0392 151.548 50.5079C150.578 49.9765 149.813 49.2135 149.293 48.2325C148.761 47.2379 148.501 46.1887 148.501 45.0715C148.501 43.8997 148.788 42.7825 149.375 41.7197C149.963 40.6706 150.755 39.8395 151.753 39.2672C152.75 38.6814 153.802 38.3952 154.936 38.3952C155.77 38.3952 156.63 38.586 157.559 38.9539C158.092 39.1719 158.434 39.2809 158.57 39.2809C158.762 39.2809 158.912 39.2127 159.049 39.0629C159.185 38.9266 159.267 38.695 159.308 38.3816H159.677Z" fill="#616161"/>
<path d="M218.167 63.1791L217.156 60.3588L216.173 63.1791H218.167ZM220.859 66.1903H219.274L218.646 64.4599H215.722L215.121 66.1903H213.563L216.391 58.5739H217.949L220.859 66.1903ZM207.551 66.1903V58.5739H209.027V66.1903H207.551ZM201.034 63.3835L202.455 63.8468C202.237 64.6915 201.868 65.3046 201.362 65.7134C200.857 66.1221 200.214 66.3265 199.422 66.3265C198.452 66.3265 197.66 65.9859 197.031 65.291C196.403 64.5961 196.102 63.656 196.102 62.457C196.102 61.1899 196.416 60.2089 197.045 59.5004C197.673 58.7919 198.493 58.4513 199.518 58.4513C200.406 58.4513 201.13 58.7238 201.69 59.2824C202.018 59.6094 202.264 60.0726 202.441 60.6858L200.993 61.0536C200.911 60.6585 200.72 60.3451 200.46 60.1135C200.187 59.8819 199.859 59.7729 199.463 59.7729C198.917 59.7729 198.479 59.9773 198.151 60.386C197.81 60.7948 197.646 61.4488 197.646 62.348C197.646 63.3154 197.81 63.9966 198.138 64.4054C198.466 64.8141 198.903 65.0185 199.436 65.0185C199.832 65.0185 200.16 64.8959 200.447 64.6234C200.72 64.3509 200.911 63.9421 201.034 63.3835ZM185.172 66.1903V58.5739H186.593L189.585 63.6833V58.5739H190.951V66.1903H189.475L186.524 61.1763V66.1903H185.172ZM174.515 66.1903V58.5739H179.898V59.8546H175.99V61.5441H179.625V62.8249H175.99V64.8959H180.048V66.1766H174.515V66.1903ZM164.773 59.8683V64.9095H165.866C166.276 64.9095 166.563 64.8823 166.754 64.8414C166.987 64.7733 167.191 64.6779 167.342 64.528C167.506 64.3781 167.629 64.1329 167.724 63.7923C167.82 63.4516 167.875 62.9884 167.875 62.4025C167.875 61.8166 167.82 61.367 167.724 61.0536C167.629 60.7403 167.492 60.495 167.314 60.3179C167.137 60.1408 166.918 60.0181 166.631 59.9636C166.426 59.9091 166.03 59.8955 165.429 59.8955H164.773V59.8683ZM163.298 58.5739H165.976C166.577 58.5739 167.041 58.6148 167.355 58.7238C167.779 58.86 168.148 59.0916 168.448 59.4323C168.749 59.7729 168.981 60.1816 169.145 60.6721C169.309 61.1626 169.378 61.7621 169.378 62.4706C169.378 63.0974 169.309 63.6424 169.159 64.092C168.981 64.6506 168.722 65.1003 168.38 65.4409C168.121 65.6998 167.779 65.9041 167.355 66.054C167.028 66.163 166.604 66.2175 166.057 66.2175H163.298V58.5739ZM152.08 66.1903V58.5739H153.501L156.494 63.6833V58.5739H157.86V66.1903H156.384L153.433 61.1763V66.1903H152.08ZM141.423 66.1903V58.5739H146.807V59.8546H142.899V61.5441H146.533V62.8249H142.899V64.8959H146.957V66.1766H141.423V66.1903ZM132.98 66.1903V59.8546H130.821V58.5739H136.601V59.8546H134.442V66.1903H132.98ZM120.123 66.1903V58.5739H121.544L124.536 63.6833V58.5739H125.903V66.1903H124.427L121.476 61.1763V66.1903H120.123ZM113.374 66.1903V58.5739H114.849V66.1903H113.374ZM103.673 61.803H104.766C105.477 61.803 105.914 61.7758 106.091 61.7076C106.269 61.6395 106.406 61.5305 106.501 61.3806C106.597 61.2308 106.652 61.04 106.652 60.8084C106.652 60.5495 106.583 60.3451 106.46 60.1816C106.324 60.0181 106.146 59.9228 105.914 59.8819C105.791 59.8683 105.436 59.8546 104.835 59.8546H103.687V61.803H103.673ZM102.211 66.1903V58.5739H105.313C106.091 58.5739 106.652 58.642 107.007 58.7783C107.362 58.9145 107.649 59.1598 107.854 59.5004C108.073 59.8546 108.168 60.2498 108.168 60.6994C108.168 61.2716 108.004 61.7485 107.69 62.1164C107.376 62.4843 106.898 62.7295 106.255 62.8249C106.57 63.0156 106.829 63.2336 107.034 63.4653C107.239 63.6969 107.512 64.1056 107.868 64.7051L108.756 66.1903H106.993L105.941 64.528C105.559 63.9421 105.299 63.5606 105.162 63.4108C105.026 63.2609 104.876 63.1519 104.725 63.0974C104.561 63.0429 104.315 63.0156 103.974 63.0156H103.673V66.2039H102.211V66.1903ZM91.5543 66.1903V58.5739H96.9374V59.8546H93.0162V61.5441H96.6505V62.8249H93.0162V64.8959H97.0741V66.1766H91.5543V66.1903ZM82.3729 59.8683V62.0346H83.179C83.7528 62.0346 84.1491 61.9938 84.3403 61.912C84.5316 61.8303 84.6819 61.7076 84.7912 61.5305C84.9005 61.367 84.9552 61.1626 84.9552 60.931C84.9552 60.6585 84.8732 60.4269 84.7229 60.2361C84.5726 60.059 84.3677 59.9364 84.1354 59.8955C83.9578 59.8683 83.6162 59.841 83.0834 59.841H82.3729V59.8683ZM80.8973 66.1903V58.5739H83.2473C84.1354 58.5739 84.7229 58.6148 84.9961 58.6829C85.4197 58.7919 85.7613 59.0508 86.0482 59.4323C86.3351 59.8138 86.4717 60.3043 86.4717 60.9174C86.4717 61.3806 86.3898 61.7758 86.2258 62.1028C86.0618 62.4161 85.8569 62.675 85.611 62.8521C85.365 63.0293 85.1054 63.1519 84.8459 63.2064C84.4906 63.2745 83.9851 63.3154 83.3293 63.3154H82.3729V66.1903H80.8973ZM69.6802 58.5739H71.1557V62.7023C71.1557 63.3563 71.1694 63.7786 71.2104 63.9694C71.2787 64.2828 71.4153 64.528 71.6476 64.7188C71.8799 64.9095 72.2078 65.0049 72.604 65.0049C73.0139 65.0049 73.3281 64.9095 73.5331 64.7324C73.738 64.5553 73.861 64.3373 73.9156 64.0784C73.9566 63.8195 73.9839 63.3835 73.9839 62.784V58.5603H75.4595V62.566C75.4595 63.4789 75.4185 64.1329 75.3366 64.5008C75.2546 64.8823 75.118 65.1956 74.8993 65.4545C74.6944 65.7134 74.4075 65.9178 74.0523 66.0813C73.697 66.2311 73.2325 66.3129 72.6587 66.3129C71.9618 66.3129 71.4427 66.2311 71.0874 66.054C70.7322 65.8905 70.4453 65.6725 70.2403 65.4C70.0354 65.1275 69.8988 64.855 69.8305 64.5553C69.7212 64.1465 69.6802 63.4925 69.6802 62.6478V58.5739ZM58.6406 63.7241L60.0752 63.5743C60.1572 64.0784 60.3348 64.4463 60.5944 64.6779C60.854 64.9095 61.2092 65.0321 61.6601 65.0321C62.1383 65.0321 62.4935 64.9231 62.7258 64.7188C62.9717 64.5144 63.081 64.2691 63.081 63.983C63.081 63.8059 63.0264 63.656 62.9307 63.5198C62.8351 63.3971 62.6575 63.2881 62.3979 63.1928C62.2203 63.1246 61.8377 63.0156 61.2229 62.8658C60.4441 62.6614 59.8839 62.4025 59.5697 62.1028C59.1188 61.6804 58.9002 61.1763 58.9002 60.5631C58.9002 60.1816 59.0095 59.8138 59.2145 59.4731C59.4194 59.1325 59.72 58.8736 60.1162 58.6965C60.5124 58.5194 60.9906 58.424 61.5508 58.424C62.4662 58.424 63.1493 58.642 63.6002 59.0644C64.0648 59.4868 64.297 60.0454 64.3244 60.7539L62.8488 60.8084C62.7805 60.4133 62.6575 60.1271 62.4525 59.9636C62.2476 59.7865 61.9334 59.7048 61.5235 59.7048C61.0999 59.7048 60.772 59.8001 60.5261 59.9773C60.3758 60.0999 60.2938 60.2498 60.2938 60.4541C60.2938 60.6313 60.3621 60.7948 60.5124 60.9174C60.7037 61.0809 61.1409 61.258 61.865 61.4351C62.5755 61.6123 63.1084 61.7894 63.4499 61.9801C63.7915 62.1709 64.0648 62.4298 64.256 62.7568C64.4473 63.0838 64.543 63.4925 64.543 63.9694C64.543 64.4054 64.4337 64.8141 64.2014 65.1956C63.9691 65.5771 63.6412 65.8633 63.2177 66.0404C62.7941 66.2311 62.2613 66.3129 61.6328 66.3129C60.7174 66.3129 60.0069 66.0949 59.515 65.6453C59.0232 65.2229 58.7363 64.5689 58.6406 63.7241Z" fill="#616161"/>
<path d="M222.034 55.6309H58.8047V56.3258H222.034V55.6309Z" fill="#616161"/>
<path fill-rule="evenodd" clip-rule="evenodd" d="M27.066 32.046C31.3971 32.046 34.9221 35.1934 34.9221 39.0901C34.9221 42.9869 31.4108 46.1342 27.066 46.1342C22.7349 46.1342 19.2099 42.9869 19.2099 39.0901C19.2099 35.1934 22.7349 32.046 27.066 32.046ZM35.6873 27.2364C44.4451 27.2364 52.1783 31.5691 56.8236 38.1909C56.0858 38.0819 55.3344 38.0274 54.5692 38.0274C46.4126 38.0274 39.7998 44.472 39.7998 52.429C39.7998 60.386 46.4126 66.8306 54.5692 66.8306C55.4437 66.8306 56.3044 66.7489 57.1378 66.6126C52.5471 73.4932 44.6501 78.0304 35.6873 78.0304C35.4823 78.0304 35.2774 78.0304 35.0861 78.0167V47.7829H19.0597V71.9945C13.5126 67.3347 10.0012 60.3996 10.0012 52.6334C10.0012 38.5996 21.5053 27.2364 35.6873 27.2364Z" fill="#616161"/>
</g>
<defs>
<clipPath id="clip0_36_446">
<rect width="235" height="109" fill="white"/>
</clipPath>
</defs>
</svg>
